<svg width="186" height="48" viewBox="0 0 186 48" fill="none" xmlns="http://www.w3.org/2000/svg">
<path d="M48.6792 34.1442V15.1432H51.137L62.7629 30.4497V15.1432H65.0886V34.1442H62.631L51.0034 18.7028V34.1442H48.6792ZM83.9564 25.507H81.4999V31.9641C80.5071 32.1781 79.6028 32.2843 78.7885 32.2843C73.6861 32.2843 71.1361 29.648 71.1361 24.3775C71.1361 19.4621 73.727 17.0031 78.9081 17.0031C80.6346 17.0031 82.3192 17.3137 83.957 17.9337V15.8078C82.3192 15.2758 80.5471 15.0091 78.6422 15.0091C71.9981 15.0091 68.6766 18.1328 68.6766 24.3775C68.6766 30.9775 72.1186 34.2769 79.0008 34.2769C80.7726 34.2769 82.4249 33.985 83.9568 33.3995L83.9564 25.507ZM95.7819 34.2765C101.052 34.2765 103.687 31.789 103.687 26.8089V15.1424H101.23V26.8089C101.23 30.4584 99.4131 32.2847 95.7819 32.2847C92.1494 32.2847 90.3332 30.4591 90.3332 26.8089V15.1424H87.8765V26.8089C87.8764 31.789 90.5116 34.2765 95.7819 34.2765ZM108.074 15.1421V34.1431H120.47V32.1497H110.53V15.1421H108.074ZM130.808 17.56L134.355 26.1715H129.573L128.894 28.1644H135.178L137.636 34.1444H140.361L130.914 12.6348L121.467 34.1439H124.017L130.808 17.56ZM145.41 34.1442V17.1759H150.832C152.852 17.1759 153.862 18.0531 153.862 19.8062C153.862 22.0217 152.046 23.4151 148.414 23.9923V25.6002L154.459 34.1437H157.702L151.178 25.1868C154.714 24.0014 156.479 22.1706 156.479 19.6999C156.479 16.6609 154.673 15.1424 151.058 15.1424H142.952V34.1435H145.41V34.1442ZM164.452 15.1421V28.6688C164.452 30.9888 163.123 32.1504 160.465 32.1504V34.1433C164.762 34.1433 166.91 32.3194 166.91 28.6688V15.1421H164.452ZM177.752 34.2758C182.661 34.2758 185.114 32.4155 185.114 28.695C185.114 25.2401 183.088 23.5129 179.042 23.5129H176.595C174.256 23.5129 173.089 22.494 173.089 20.4574C173.089 18.1544 174.816 17.0023 178.271 17.0023C180.485 17.0023 182.544 17.3569 184.45 18.0664V15.8069C182.544 15.2762 180.485 15.0083 178.271 15.0083C173.176 15.0083 170.628 16.8261 170.628 20.4572C170.628 23.9124 172.618 25.6399 176.595 25.6399H179.042C181.451 25.6399 182.656 26.6595 182.656 28.6952C182.656 31.0876 181.021 32.2836 177.752 32.2836C175.44 32.2836 173.288 31.9272 171.294 31.2192V33.4783C173.288 34.0096 175.44 34.2758 177.752 34.2758ZM27.4528 23.9903L22.8138 14.3025L18.73 23.9903H27.4528ZM45.1625 8.18103L41.6573 37.2541L22.8527 47.6759L4.14441 37.3936L0.637695 8.31939L22.8289 0.509766L45.1625 8.18103ZM36.976 35.0393L22.7773 4.51604L9.05664 35.0393L14.1738 34.9449L16.9246 28.0633H29.2216L32.2333 35.0388L36.976 35.0393Z" fill="#6D6D6D"/>
</svg>
