<svg width="78" height="47" viewBox="0 0 78 47" fill="none" xmlns="http://www.w3.org/2000/svg">
<path d="M68.1914 20.9273C67.1241 20.9183 66.06 20.8155 65.0125 20.6204C64.0053 20.4188 63.0214 20.1232 62.0749 19.7379L61.3909 19.5844H60.908C60.5056 19.5844 60.3044 19.853 60.3044 20.3902V21.6563C60.2474 21.8962 60.2474 22.1453 60.3044 22.3852C60.5065 22.7008 60.7999 22.954 61.1494 23.1142C62.1173 23.5759 63.146 23.9115 64.2077 24.1118C65.526 24.4123 66.8762 24.5667 68.2317 24.5722C69.5952 24.6112 70.9558 24.4296 72.2557 24.035C73.3296 23.7664 74.331 23.2824 75.1932 22.6155C76.008 22.0149 76.6801 21.2565 77.1649 20.3902C77.6263 19.4544 77.8602 18.4314 77.849 17.3975C77.8636 16.1147 77.4398 14.8623 76.6418 13.8294C75.5688 12.667 74.1743 11.816 72.6178 11.3739L68.795 10.2229C67.7269 9.95931 66.727 9.48916 65.8575 8.84164C65.6026 8.60846 65.3999 8.32847 65.2615 8.01855C65.1232 7.70863 65.0522 7.3752 65.0527 7.03839C65.0239 6.58313 65.1246 6.12892 65.3442 5.72372C65.5638 5.31853 65.8941 4.97739 66.3001 4.73636C67.4136 4.22136 68.6457 3.98376 69.8815 4.04575C71.6422 4.005 73.3897 4.34609 74.992 5.0433C75.3195 5.20252 75.6735 5.30637 76.0382 5.35023C76.4406 5.35023 76.6418 5.0433 76.6418 4.50616V3.12494C76.6539 2.82665 76.5696 2.53202 76.4004 2.28086C76.1855 2.0197 75.91 1.80958 75.5956 1.66699C75.2368 1.47861 74.8594 1.3244 74.4689 1.20658C73.9681 1.03805 73.4575 0.897137 72.9397 0.784541L71.1692 0.40087C70.5128 0.355655 69.8538 0.355655 69.1974 0.40087C68.0683 0.38231 66.9426 0.524557 65.8575 0.822909C64.8416 1.10564 63.8874 1.56051 63.0407 2.16576C62.2552 2.71229 61.6088 3.4204 61.1494 4.23759C60.6558 5.1088 60.4063 6.08671 60.4251 7.07675C60.401 8.46188 60.869 9.81406 61.753 10.9135C62.8579 12.1825 64.348 13.0939 66.0185 13.5224L70.0425 14.6735C71.0381 14.8953 71.9629 15.3427 72.7385 15.9779C73.2203 16.4642 73.4807 17.1125 73.4629 17.7812C73.4715 18.2666 73.3459 18.7455 73.0987 19.1699C72.8514 19.5942 72.4913 19.9489 72.0545 20.1983C70.8601 20.7712 69.5246 21.0232 68.1914 20.9273ZM44.812 2.31923C44.7499 1.94315 44.5672 1.59465 44.2889 1.32168C43.9879 1.11005 43.6144 1.01417 43.2426 1.05311H41.0294C40.6595 1.03353 40.2928 1.12767 39.9832 1.32168C39.6898 1.58423 39.5043 1.93794 39.4601 2.31923L35.4361 19.2008L30.8487 2.31923C30.7755 1.93853 30.5784 1.58949 30.2853 1.32168C30.2853 1.32168 29.7622 1.05311 29.2391 1.05311H26.6235C26.1809 1.05311 25.9797 1.28332 25.9797 1.70535C26.0187 2.05827 26.0997 2.40581 26.2211 2.74127L32.4985 22.462C32.5801 22.8128 32.7454 23.141 32.9814 23.4212C33.2977 23.597 33.6625 23.6772 34.0277 23.6514H36.3213C36.6992 23.6757 37.0764 23.5958 37.4078 23.4212C37.6615 23.1223 37.828 22.765 37.8907 22.3852L41.9147 5.96411L45.9387 22.4236C45.9721 22.7998 46.143 23.1528 46.4216 23.4212C46.7382 23.6321 47.1238 23.7274 47.5081 23.6897H49.8017C50.1587 23.7065 50.5118 23.6122 50.8077 23.4212C51.1104 23.1604 51.3094 22.8081 51.3711 22.4236L57.8497 2.7029C57.8733 2.49889 57.8733 2.29303 57.8497 2.08902C57.8654 1.94874 57.8654 1.80727 57.8497 1.66699C57.8632 1.57835 57.8549 1.48793 57.8253 1.40292C57.7956 1.31791 57.7456 1.24067 57.6792 1.17733C57.6128 1.114 57.5318 1.06632 57.4426 1.03809C57.3535 1.00987 57.2586 1.00187 57.1657 1.01474H54.6708C54.3015 1.00036 53.9364 1.09408 53.6245 1.28331C53.3768 1.57599 53.1983 1.91628 53.1014 2.28086L49.0774 19.5844L44.812 2.31923ZM15.9599 10.4914C15.0125 10.3729 14.0584 10.3088 13.1029 10.2996C10.7346 10.1809 8.4024 10.8904 6.54375 12.2947C5.75225 12.941 5.12404 13.7494 4.70598 14.6595C4.28792 15.5697 4.09081 16.5581 4.12935 17.551C4.08255 18.4552 4.23369 19.3588 4.57315 20.2043C4.91262 21.0498 5.43298 21.8187 6.10111 22.462C6.81922 23.0939 7.66268 23.5823 8.58183 23.8986C9.50097 24.2149 10.4772 24.3526 11.453 24.3036C12.989 24.3457 14.5144 24.0491 15.9103 23.4368C17.3063 22.8246 18.5351 21.9132 19.501 20.7738C19.7362 21.2881 20.005 21.7879 20.3058 22.2701C20.5923 22.6917 20.9153 23.0895 21.2716 23.4595C21.3689 23.5535 21.4848 23.6281 21.6126 23.679C21.7404 23.7299 21.8775 23.7562 22.016 23.7562C22.1545 23.7562 22.2917 23.7299 22.4194 23.679C22.5472 23.6281 22.6632 23.5535 22.7605 23.4595L24.4505 22.3852C24.5916 22.302 24.7117 22.19 24.8021 22.0573C24.8925 21.9247 24.9511 21.7746 24.9737 21.6179C25.0387 21.418 25.0387 21.204 24.9737 21.004C24.6476 20.4228 24.3652 19.8202 24.1286 19.2008C23.913 18.4515 23.8181 17.6753 23.8469 16.8987V8.80328C23.9431 7.6663 23.7965 6.52254 23.4162 5.44108C23.0358 4.35961 22.4294 3.36287 21.6337 2.51106C20.6111 1.69121 19.4224 1.08078 18.1417 0.717748C16.861 0.354717 15.5157 0.246854 14.1893 0.40087C12.831 0.400388 11.4784 0.568048 10.1653 0.899643C8.99617 1.1588 7.86204 1.545 6.78519 2.05066C6.50117 2.1703 6.2524 2.35477 6.06087 2.5878C5.96255 2.87448 5.96255 3.18356 6.06087 3.47024V4.73636C6.06087 5.2735 6.06087 5.5037 6.62423 5.5037C6.77009 5.5338 6.92101 5.5338 7.06687 5.5037L7.99239 5.19676C8.80978 4.81423 9.65743 4.49351 10.5275 4.23759C11.4751 4.01114 12.4479 3.89519 13.4248 3.89228C14.9803 3.73691 16.5384 4.16332 17.7707 5.08166C18.729 6.22927 19.1769 7.6895 19.0181 9.14858V11.0286L15.9599 10.4914ZM19.0986 13.9445V14.9804C19.1018 15.7304 19.0071 16.4779 18.8169 17.2057C18.6471 17.8167 18.3302 18.3816 17.8914 18.8555C17.2205 19.6075 16.3424 20.1656 15.3563 20.4669C14.4767 20.7619 13.5524 20.9174 12.62 20.9273C12.1096 20.9635 11.5967 20.9006 11.1126 20.7423C10.6284 20.584 10.1829 20.3337 9.80319 20.0065C9.45073 19.6425 9.18258 19.2118 9.01619 18.7425C8.8498 18.2731 8.78889 17.7757 8.83743 17.2824C8.80418 16.7312 8.907 16.1803 9.13763 15.6739C9.36825 15.1674 9.72025 14.7197 10.1653 14.3665C11.3381 13.5827 12.7622 13.2161 14.1893 13.3306H16.6842C17.5002 13.493 18.3062 13.698 19.0986 13.9445ZM72.2557 34.9313C62.6359 38.7903 52.3109 40.7983 41.8745 40.8399C27.9053 40.8424 14.1761 37.3781 2.03687 30.7877C1.07111 30.2121 0.306552 31.1713 1.15159 31.9003C12.078 41.3181 26.3003 46.5042 41.0294 46.4415C52.6448 46.4688 64.0008 43.1671 73.6238 36.9648C74.992 35.7754 73.7445 34.2023 72.2557 34.9313Z" fill="#6D6D6D"/>
</svg>
