<svg width="185" height="49" viewBox="0 0 185 49" fill="none" xmlns="http://www.w3.org/2000/svg">
<path d="M75.153 24.9581C75.153 18.8613 73.4144 15.7308 69.9378 15.5597C68.5544 15.4945 67.2035 15.7146 65.8893 16.225C64.8407 16.6001 64.1349 16.9719 63.7631 17.3475V31.8999C65.9872 33.2956 67.9625 33.9443 69.6847 33.8419C73.3288 33.6014 75.153 30.6431 75.153 24.9581ZM79.4421 25.2114C79.4421 28.3088 78.7159 30.8796 77.2548 32.9242C75.6264 35.2382 73.3696 36.43 70.4845 36.495C68.3093 36.5645 66.0687 35.8828 63.7629 34.4541V47.6805L60.033 46.3501V16.9921C60.6452 16.2414 61.4328 15.5965 62.3877 15.0499C64.6075 13.7561 67.3051 13.091 70.4801 13.0584L70.533 13.1114C73.4348 13.0746 75.6712 14.2662 77.2422 16.682C78.7079 18.8981 79.4421 21.7383 79.4421 25.2114ZM102.238 33.8914C102.238 38.0462 101.822 40.9225 100.989 42.5229C100.153 44.1222 98.5614 45.3996 96.2108 46.3507C94.3046 47.1009 92.244 47.5096 90.0326 47.5787L89.4165 45.228C91.6653 44.9224 93.248 44.6158 94.1664 44.3094C95.9745 43.6976 97.2148 42.7594 97.8964 41.5026C98.4432 40.4781 98.7124 38.5231 98.7124 35.6298V34.6581C96.1621 35.8174 93.4896 36.3926 90.694 36.3926C88.8571 36.3926 87.2372 35.8174 85.8414 34.6581C84.2747 33.3972 83.4912 31.7979 83.4912 29.859V14.3355L87.2207 13.0581V28.6839C87.2207 30.3527 87.7595 31.6385 88.8365 32.5403C89.9143 33.4425 91.3099 33.8745 93.0197 33.8421C94.7295 33.8055 96.5617 33.1439 98.5086 31.8501V13.6212H102.238L102.238 33.8914ZM116.799 36.291C116.354 36.328 115.946 36.344 115.57 36.344C113.46 36.344 111.816 35.842 110.64 34.8341C109.469 33.826 108.882 32.4346 108.882 30.6592V15.9675H106.327V13.621H108.882V7.38952L112.607 6.06327V13.621H116.798V15.9675H112.607V30.5568C112.607 31.957 112.982 32.9483 113.733 33.5278C114.379 34.0049 115.403 34.278 116.798 34.3476L116.799 36.291ZM139.382 35.985H135.652V21.5872C135.652 20.1223 135.309 18.8615 134.628 17.8087C133.84 16.6168 132.747 16.021 131.343 16.021C129.633 16.021 127.495 16.923 124.928 18.7266V35.985H121.198V1.57037L124.928 0.395264V16.0701C127.311 14.3357 129.914 13.4664 132.742 13.4664C134.717 13.4664 136.318 14.1314 137.542 15.4579C138.77 16.7838 139.382 18.4368 139.382 20.4121V35.985ZM159.207 24.3705C159.207 22.0281 158.763 20.0937 157.877 18.5635C156.824 16.6986 155.188 15.7148 152.976 15.613C148.887 15.8499 146.846 18.7796 146.846 24.395C146.846 26.97 147.271 29.1209 148.128 30.8469C149.221 33.0468 150.861 34.1326 153.049 34.0956C157.155 34.0629 159.207 30.8227 159.207 24.3705ZM163.292 24.395C163.292 27.7294 162.44 30.5043 160.738 32.7198C158.865 35.2012 156.277 36.4456 152.976 36.4456C149.703 36.4456 147.153 35.2012 145.312 32.7198C143.643 30.5043 142.81 27.729 142.81 24.395C142.81 21.261 143.712 18.6248 145.516 16.478C147.422 14.2003 149.927 13.0581 153.025 13.0581C156.122 13.0581 158.644 14.2003 160.587 16.478C162.391 18.6248 163.292 21.261 163.292 24.395ZM184.677 35.985H180.947V20.7712C180.947 19.1023 180.445 17.8005 179.441 16.8617C178.437 15.9272 177.098 15.4744 175.43 15.5108C173.658 15.5433 171.973 16.1232 170.373 17.245V35.985H166.643V16.784C168.79 15.2214 170.765 14.2008 172.568 13.7238C174.27 13.279 175.772 13.0588 177.065 13.0588C177.951 13.0588 178.783 13.1441 179.567 13.3158C181.032 13.6543 182.224 14.283 183.142 15.2054C184.166 16.2256 184.677 17.4497 184.677 18.8822V35.985ZM23.1937 1.70815C21.2744 1.7172 19.442 1.8809 17.8293 2.16614C13.0789 3.00562 12.2166 4.7621 12.2166 8.00155V12.2797H23.4426V13.706H12.2166H8.00336C4.74067 13.706 1.88415 15.6669 0.990382 19.3974C-0.0401453 23.6735 -0.0860059 26.3421 0.990382 30.807C1.78811 34.1304 3.6941 36.4983 6.95658 36.4983H10.8163V31.3695C10.8163 27.6644 14.022 24.3962 17.8293 24.3962H29.0419C32.1633 24.3962 34.6548 21.8264 34.6548 18.6916V8.00134C34.6548 4.95932 32.0884 2.6739 29.0419 2.16594C27.1139 1.84512 25.1127 1.69931 23.1937 1.70815ZM17.1228 5.14914C18.2825 5.14914 19.2293 6.1116 19.2293 7.29492C19.2293 8.47393 18.2825 9.42755 17.1228 9.42755C15.9588 9.42755 15.0165 8.47414 15.0165 7.29492C15.0161 6.1118 15.9588 5.14914 17.1228 5.14914ZM36.055 13.706V18.691C36.055 22.5558 32.7784 25.8086 29.0423 25.8086H17.8293C14.7578 25.8086 12.2166 28.4371 12.2166 31.513V42.2027C12.2166 45.2449 14.8619 47.0343 17.8293 47.9071C21.3827 48.9518 24.7902 49.1406 29.0419 47.9071C31.8682 47.0888 34.6548 45.4421 34.6548 42.2027V37.9241H23.4423V36.4977H34.655H40.2676C43.5303 36.4977 44.7462 34.2223 45.8805 30.8064C47.0526 27.2897 47.0028 23.9082 45.8805 19.3972C45.0742 16.1495 43.5342 13.7057 40.2676 13.7057H36.055V13.706ZM29.7487 40.7763C30.9123 40.7763 31.8552 41.7295 31.8552 42.9087C31.8552 44.092 30.9123 45.0545 29.7487 45.0545C28.589 45.0545 27.6422 44.092 27.6422 42.9087C27.6422 41.7295 28.589 40.7763 29.7487 40.7763Z" fill="#6D6D6D"/>
</svg>
