<svg width="70" height="63" viewBox="0 0 70 63" fill="none" xmlns="http://www.w3.org/2000/svg">
<path d="M28.4201 31.3422C28.4201 27.9313 31.1907 25.1607 34.6016 25.1607C38.0125 25.1607 40.7831 27.9313 40.7831 31.3422C40.7831 34.7531 38.0125 37.5237 34.6016 37.5237C31.1907 37.5237 28.4201 34.7531 28.4201 31.3422ZM69.1786 31.3422C69.1786 35.5905 64.1669 39.888 56.0891 42.5601C55.6704 42.6955 55.2395 42.831 54.7962 42.9664C54.9562 43.5944 55.0917 44.2101 55.2148 44.8135C55.966 48.6307 56.0891 52.1771 55.5596 55.0585C54.9932 58.1246 53.7126 60.3041 51.8655 61.3754C50.942 61.9173 49.846 62.1882 48.627 62.1882C45.2776 62.1882 41.0294 60.1687 36.5964 56.3514C35.9684 55.8096 35.3528 55.2432 34.7248 54.6398C34.2445 55.1077 33.7643 55.551 33.284 55.9697C30.3534 58.531 27.3365 60.4027 24.5782 61.3754C23.1375 61.8926 21.783 62.1512 20.5763 62.1512C19.3203 62.1512 18.212 61.8803 17.2762 61.3385C13.7421 59.2944 12.5108 53.4085 14.0007 45.5892C14.1485 44.7888 14.3332 43.9638 14.5425 43.1265C13.8899 42.9418 13.2619 42.7448 12.6585 42.5354C8.97672 41.2794 5.84903 39.6048 3.62024 37.6961C1.256 35.6767 0 33.4725 0 31.3422C0 27.2541 4.4822 23.2521 12.0059 20.6416C12.8309 20.3584 13.6929 20.0875 14.5795 19.8289C14.3825 19.0531 14.2101 18.2897 14.0623 17.5385C13.3358 13.8198 13.2003 10.4089 13.6683 7.66291C14.1854 4.67067 15.4045 2.5404 17.2146 1.49373C20.8841 -0.636547 27.1272 1.5553 33.4811 7.2073C33.8628 7.55209 34.2445 7.90919 34.6386 8.2786C35.2173 7.72448 35.7961 7.19499 36.3625 6.69013C39.2193 4.20275 42.113 2.38032 44.7235 1.41985C47.568 0.37318 50.0307 0.37318 51.8285 1.40753C55.5104 3.5255 56.7294 10.0272 55.0055 18.3512C54.907 18.8561 54.7838 19.361 54.6607 19.8781C55.4242 20.0998 56.163 20.3338 56.8772 20.58C60.4605 21.8114 63.4774 23.4122 65.6199 25.1854C67.9472 27.1309 69.1786 29.2612 69.1786 31.3422ZM36.7073 10.3842C38.6775 12.5022 40.6477 14.965 42.544 17.674C45.8071 17.9818 48.9225 18.4744 51.8039 19.1393C51.9147 18.6714 52.0256 18.2158 52.1118 17.7602C53.7249 9.91633 52.3334 5.11397 50.3509 3.96879C49.3412 3.39005 47.7034 3.46393 45.7332 4.19044C43.4552 5.02777 40.8816 6.6655 38.2957 8.91891C37.7663 9.37452 37.2368 9.86707 36.7073 10.3842ZM18.1997 40.9962C20.1699 41.4272 22.3002 41.772 24.5659 42.0182C23.8271 40.8608 23.1006 39.6786 22.3987 38.4719C21.7091 37.2898 21.0565 36.0953 20.4408 34.9009C19.5665 36.9696 18.8031 39.026 18.1997 40.9962ZM22.3987 24.3603C23.0883 23.1782 23.7902 22.0084 24.5167 20.8756C22.3248 21.1465 20.2192 21.5159 18.2367 21.9469C18.84 23.8924 19.5789 25.8996 20.4408 27.9436C21.0565 26.7492 21.7091 25.5548 22.3987 24.3603ZM24.96 36.9942C26.0313 38.8413 27.1641 40.6391 28.3462 42.3507C30.3534 42.4739 32.4467 42.5477 34.6016 42.5477C36.7688 42.5477 38.8868 42.4739 40.9309 42.3261C42.0514 40.6391 43.1597 38.8536 44.2556 36.9696C45.3392 35.0979 46.3366 33.2139 47.2355 31.3669C46.3366 29.5567 45.3515 27.7097 44.2556 25.8257C43.1843 23.9663 42.0637 22.1931 40.9186 20.4938C38.8622 20.3338 36.7442 20.2599 34.6016 20.2599C32.4837 20.2599 30.3657 20.3461 28.297 20.5061C27.1395 22.2054 26.0066 23.9909 24.9476 25.838C23.8887 27.6727 22.9036 29.5444 22.0047 31.4161C22.9036 33.2755 23.8887 35.1472 24.96 36.9942ZM44.6989 41.969C46.9769 41.6981 49.1441 41.3287 51.1513 40.8731C50.5356 38.9398 49.7598 36.8957 48.824 34.7778C48.196 35.9968 47.5187 37.2282 46.8169 38.4473C46.115 39.654 45.4131 40.8361 44.6989 41.969ZM51.0035 21.9838C49.0087 21.5282 46.8907 21.1588 44.6866 20.8756C45.4008 21.9961 46.1027 23.1536 46.7922 24.3357C47.4941 25.5548 48.1591 26.7615 48.7871 27.9436C49.6613 25.8996 50.4125 23.8924 51.0035 21.9838ZM30.5258 17.4031C31.868 17.3415 33.2225 17.3046 34.5893 17.3046C35.9808 17.3046 37.3476 17.3415 38.7144 17.4031C37.3722 15.6176 36.0054 13.9675 34.6386 12.4899C33.2471 13.9799 31.868 15.6299 30.5258 17.4031ZM16.9683 16.9721C17.1038 17.674 17.2639 18.3759 17.4486 19.1024C20.3177 18.4498 23.4331 17.9695 26.6962 17.6617C28.5925 14.9896 30.575 12.5392 32.5822 10.3719C32.2374 10.0395 31.8926 9.71931 31.5478 9.42378C25.5387 4.10424 20.6871 2.90981 18.7046 4.05499C17.6948 4.63373 16.9437 6.09907 16.5866 8.16778C16.1803 10.5566 16.3034 13.6105 16.9683 16.9721ZM18.7415 31.4284C17.3747 28.4485 16.2295 25.5055 15.3676 22.6857C14.5425 22.9196 13.7545 23.1659 12.991 23.4368C6.07068 25.8503 2.96761 29.1504 2.96761 31.3545C2.96761 33.6449 6.30464 37.2528 13.619 39.7525C14.1731 39.9372 14.7396 40.1219 15.3306 40.2943C16.2049 37.4252 17.3501 34.4453 18.7415 31.4284ZM32.6561 52.5342C30.6243 50.367 28.6295 47.8919 26.7208 45.1952C23.3469 44.9243 20.2192 44.4687 17.4116 43.8407C17.2146 44.6288 17.0545 45.3922 16.9068 46.131C15.5399 53.3346 16.8575 57.669 18.7538 58.7649C20.7363 59.9101 25.5264 58.8265 31.3508 53.7286C31.7695 53.3592 32.2128 52.9528 32.6561 52.5342ZM38.776 45.4045C37.4092 45.4661 36.0054 45.503 34.6016 45.503C33.2225 45.503 31.8803 45.4784 30.5627 45.4292C31.9295 47.227 33.321 48.8893 34.7248 50.4039C36.067 48.9139 37.4338 47.2516 38.776 45.4045ZM52.3334 45.3922C52.2226 44.8381 52.0994 44.284 51.9517 43.7052C49.0949 44.3702 45.9426 44.8504 42.5932 45.1459C40.6846 47.9165 38.7267 50.3916 36.7935 52.5096C37.3722 53.076 37.9633 53.6055 38.5297 54.098C44.0832 58.8758 48.4915 59.9101 50.4002 58.8019C52.3827 57.669 53.8357 52.9775 52.3334 45.3922ZM66.2356 31.3422C66.2356 30.1724 65.349 28.7933 63.7359 27.4511C61.8766 25.8996 59.1675 24.4835 55.929 23.3629C55.2641 23.1413 54.5745 22.9196 53.8726 22.7103C53.023 25.4563 51.8901 28.3746 50.4987 31.3545C51.9517 34.4207 53.1338 37.3637 53.9958 40.1096C54.3898 39.9865 54.7838 39.8633 55.1656 39.7402C62.7632 37.2282 66.2356 33.6203 66.2356 31.3422Z" fill="#6D6D6D"/>
</svg>
